<svg xmlns="http://www.w3.org/2000/svg" xmlns:svg="http://www.w3.org/2000/svg" id="svg2" width="624.974" height="228.727" version="1.1"><defs id="defs4"><marker id="Arrow1Lend" orient="auto" refX="0" refY="0" style="overflow:visible"><path id="path3905" d="M 0,0 5,-5 -12.5,0 5,5 0,0 z" style="fill-rule:evenodd;stroke:#000;stroke-width:1pt" transform="matrix(-0.8,0,0,-0.8,-10,0)"/></marker><marker id="Arrow2Lend" orient="auto" refX="0" refY="0" style="overflow:visible"><path id="path3923" style="fill-rule:evenodd;stroke-width:.625;stroke-linejoin:round" d="M 8.7185878,4.0337352 -2.2072895,0.01601326 8.7185884,-4.0017078 c -1.7454984,2.3720609 -1.7354408,5.6174519 -6e-7,8.035443 z" transform="matrix(-1.1,0,0,-1.1,-1.1,0)"/></marker><marker id="Arrow1Lstart" orient="auto" refX="0" refY="0" style="overflow:visible"><path id="path3902" d="M 0,0 5,-5 -12.5,0 5,5 0,0 z" style="fill-rule:evenodd;stroke:#000;stroke-width:1pt" transform="matrix(0.8,0,0,0.8,10,0)"/></marker></defs><metadata id="metadata7"/><g id="layer1" transform="translate(-73.808515,-303.60002)"><rect style="opacity:.5;fill:none;stroke:#000;stroke-width:1.54286373;stroke-miterlimit:4;stroke-opacity:1;stroke-dasharray:none;stroke-dashoffset:0" id="rect2987" width="116.168" height="111.858" x="239.238" y="386.672"/><rect style="opacity:.5;fill:none;stroke:#000;stroke-width:1.52935863;stroke-miterlimit:4;stroke-opacity:1;stroke-dasharray:none;stroke-dashoffset:0" id="rect2987-7" width="116.168" height="109.908" x="397.158" y="388.655"/><text xml:space="preserve" style="font-size:22.50402451px;font-style:normal;font-weight:400;text-align:center;line-height:125%;letter-spacing:0;word-spacing:0;text-anchor:middle;fill:#000;fill-opacity:1;stroke:none;font-family:Sans" id="text3826" x="296.701" y="339.196"><tspan id="tspan3830" x="296.701" y="339.196">Older</tspan><tspan id="tspan3886" x="296.701" y="367.326">node</tspan></text><text xml:space="preserve" style="font-size:22.50402451px;font-style:normal;font-weight:400;text-align:center;line-height:125%;letter-spacing:0;word-spacing:0;text-anchor:middle;fill:#000;fill-opacity:1;stroke:none;font-family:Sans" id="text3826-3" x="454.149" y="337.722"><tspan id="tspan3828-4" x="454.149" y="337.722">Newer</tspan><tspan id="tspan3830-3" x="454.149" y="365.852">node</tspan></text><text xml:space="preserve" style="font-size:22.50402451px;font-style:normal;font-weight:400;text-align:center;line-height:125%;letter-spacing:0;word-spacing:0;text-anchor:middle;fill:#000;fill-opacity:1;stroke:none;font-family:Sans" id="text3826-6" x="139.247" y="340.712"><tspan id="tspan3830-0" x="139.247" y="340.712">Wallets</tspan><tspan id="tspan3882" x="139.247" y="368.842">&amp; clients</tspan></text><path style="opacity:.5;fill:none;stroke:#000;stroke-width:2;stroke-miterlimit:4;stroke-opacity:1;stroke-dasharray:none;stroke-dashoffset:0" id="path3022" d="m 83.842663,428.08792 c 0,11.71573 -9.497475,21.2132 -21.213204,21.2132 -11.715728,0 -21.213203,-9.49747 -21.213203,-21.2132 0,-11.71573 9.497475,-21.2132 21.213203,-21.2132 11.715729,0 21.213204,9.49747 21.213204,21.2132 z" transform="translate(76.771592,-32.142136)"/><path style="fill:none;stroke:#000;stroke-width:1;stroke-linecap:butt;stroke-linejoin:miter;stroke-miterlimit:4;stroke-opacity:1;stroke-dasharray:none;marker-start:url(#Arrow1Lstart);marker-end:url(#Arrow1Lend)" id="path3888" d="m 161.62441,397.96608 78.7919,0"/><path transform="translate(76.771592,16.08377)" style="opacity:.5;fill:none;stroke:#000;stroke-width:2;stroke-miterlimit:4;stroke-opacity:1;stroke-dasharray:none;stroke-dashoffset:0" id="path3022-6" d="m 83.842663,428.08792 c 0,11.71573 -9.497475,21.2132 -21.213204,21.2132 -11.715728,0 -21.213203,-9.49747 -21.213203,-21.2132 0,-11.71573 9.497475,-21.2132 21.213203,-21.2132 11.715729,0 21.213204,9.49747 21.213204,21.2132 z"/><path style="fill:none;stroke:#000;stroke-width:1px;stroke-linecap:butt;stroke-linejoin:miter;stroke-opacity:1;marker-start:url(#Arrow1Lstart);marker-end:url(#Arrow1Lend)" id="path3890" d="m 160.61425,444.67676 79.80206,0"/><path transform="translate(76.771592,64.30967)" style="opacity:.5;fill:none;stroke:#000;stroke-width:2;stroke-miterlimit:4;stroke-opacity:1;stroke-dasharray:none;stroke-dashoffset:0" id="path3022-2" d="m 83.842663,428.08792 c 0,11.71573 -9.497475,21.2132 -21.213204,21.2132 -11.715728,0 -21.213203,-9.49747 -21.213203,-21.2132 0,-11.71573 9.497475,-21.2132 21.213203,-21.2132 11.715729,0 21.213204,9.49747 21.213204,21.2132 z"/><path style="fill:none;stroke:#000;stroke-width:1px;stroke-linecap:butt;stroke-linejoin:miter;stroke-opacity:1;marker-start:url(#Arrow1Lstart);marker-end:url(#Arrow1Lend)" id="path3892" d="m 161.62441,493.40774 77.78174,0"/><path style="fill:none;stroke:#000;stroke-width:1px;stroke-linecap:butt;stroke-linejoin:miter;stroke-opacity:1;marker-start:url(#Arrow1Lstart);marker-end:url(#Arrow1Lend)" id="path3894" d="m 355.5737,442.65645 40.4061,0"/><path style="fill:none;stroke:#000;stroke-width:1;stroke-linecap:butt;stroke-linejoin:miter;stroke-miterlimit:4;stroke-opacity:1;stroke-dasharray:none;marker-start:url(#Arrow1Lstart);marker-mid:none;marker-end:url(#Arrow1Lend)" id="path3896" d="m 556.93964,443.6463 -43.78215,0"/><text xml:space="preserve" style="font-size:22.50402451px;font-style:normal;font-weight:400;text-align:center;line-height:125%;letter-spacing:0;word-spacing:0;text-anchor:middle;fill:#000;fill-opacity:1;stroke:none;font-family:Sans" id="text3826-3-2" x="618.927" y="434.615"><tspan id="tspan3830-3-5" x="618.927" y="434.615">Bitcoin P2P</tspan><tspan id="tspan6600" x="618.927" y="462.745">network</tspan></text></g></svg>