<svg xmlns="http://www.w3.org/2000/svg" xmlns:svg="http://www.w3.org/2000/svg" id="svg2" width="16" height="16" version="1.1"><metadata id="metadata16"/><g id="g4"><path id="path6" fill="#329239" stroke="#329239" stroke-linecap="round" stroke-linejoin="round" stroke-width="1.72" d="M13.76 5.435c0 1.985-1.624 3.595-3.628 3.595s-3.628-1.609-3.628-3.595c0-1.985 1.624-3.595 3.628-3.595s3.628 1.6 3.6 3.595z" opacity=".99" style="fill:#8b8b8b;fill-opacity:1;stroke:#8b8b8b;stroke-opacity:1"/><path id="path8" fill="#329239" d="M6.916 6.15l-5.565 6.75v1.815l1.099.011 1.375-.987.477-1.042 1.609-.05.311-1.523 1.403-.385 3.294-3.162z" style="fill:#8b8b8b;fill-opacity:1"/><path id="path10" fill="#fff" stroke="#fff" stroke-linecap="round" stroke-linejoin="round" stroke-width="1.353" d="M11.764 4.37c0 .299-.242.541-.541.541-.299 0-.541-.242-.541-.541 0-.299.242-.541.541-.541.299 0 .541.242.541.541z" opacity=".99"/></g></svg>