<svg xmlns="http://www.w3.org/2000/svg" xmlns:svg="http://www.w3.org/2000/svg" xmlns:xlink="http://www.w3.org/1999/xlink" id="svg3821" width="32" height="32" version="1.1" viewBox="-142.5 -142.5 32 32"><metadata id="metadata3838"/><circle id="circle3823" cx="0" cy="0" r="141.73" fill="#dd4814" transform="matrix(0.10830859,0,0,0.10830859,-126.3812,-126.6188)"/><g id="U" fill="#fff" transform="matrix(0.10830859,0,0,0.10830859,-126.3812,-126.6188)"><circle id="circle3826" cx="-96.38" cy="0" r="18.92" d="m -77.455698,0 c 0,10.450055 -8.471444,18.921499 -18.921499,18.921499 -10.450053,0 -18.921503,-8.471444 -18.921503,-18.921499 0,-10.450055 8.47145,-18.921499 18.921503,-18.921499 10.450055,0 18.921499,8.471444 18.921499,18.921499 z"/><path id="path3828" d="M-45.61 68.4C-62.17 57.33-74.48 40.42-79.6 20.61-73.62 15.74-69.8 8.32-69.8 0c0-8.32-3.82-15.74-9.8-20.61 5.12-19.81 17.44-36.73 34-47.79l13.83 23.17C-45.98-35.22-55.28-18.7-55.28 0c0 18.7 9.29 35.22 23.5 45.22z"/></g><use id="use3830" width="285" height="285" x="0" y="0" transform="matrix(-0.5,0.8660254,-0.8660254,-0.5,-299.2269,-80.478858)" xlink:href="#U"/><use id="use3832" width="285" height="285" x="0" y="0" transform="matrix(-0.5,-0.8660254,0.8660254,-0.5,-79.916716,-299.37753)" xlink:href="#U"/></svg>